<svg width="120" height="22" viewBox="0 0 120 22" fill="none" xmlns="http://www.w3.org/2000/svg">
<path d="M50.8588 20.3369C50.0453 18.3718 43.6272 2.84103 43.3221 2.1071L42.9492 1.18378H43.8192H44.6893L48.2373 9.83701C50.1921 14.5839 51.8306 18.431 51.8758 18.3837C51.921 18.3363 53.5255 14.4773 55.4351 9.82513C57.3334 5.17302 58.9379 1.31399 58.9831 1.26664C59.0283 1.21929 59.4238 1.18378 59.8532 1.20746L60.6552 1.24296L56.6215 11.0089L52.5877 20.7748L51.8306 20.8104L51.0735 20.8459L50.8588 20.3369Z" fill="black"/>
<path d="M62.5992 20.7867C62.5992 20.763 64.158 16.9868 66.0564 12.4057C67.9548 7.83645 69.774 3.43291 70.0902 2.62795L70.6782 1.18378L71.4576 1.20746L72.2376 1.24296L73.5594 4.43909C74.2824 6.20288 76.0338 10.4289 77.4576 13.8499C78.87 17.2709 80.1018 20.2422 80.1924 20.4552L80.3502 20.8459L79.4916 20.8104L78.6216 20.7748L77.5818 18.2298L76.5312 15.6847L71.4576 15.661L66.384 15.6255L65.322 18.2298L64.2486 20.8341H63.4236C62.9718 20.8341 62.5992 20.8104 62.5992 20.7867ZM75.819 14.0156C75.819 13.8499 71.4804 3.32636 71.4348 3.37371C71.4012 3.39739 70.407 5.82408 69.2094 8.75976L67.0284 14.0867H71.424C73.842 14.0867 75.819 14.0511 75.819 14.0156Z" fill="black"/>
<path d="M86.1018 10.997V1.25714H90.6C94.4868 1.30449 95.0508 1.27844 95.5932 1.46784C98.1246 2.33199 99.3222 4.0721 99.3222 6.86576C99.3222 7.96664 99.1188 8.96097 98.7456 9.73041C98.3844 10.4762 97.3902 11.4468 96.5766 11.8493C95.3334 12.4531 94.6326 12.5477 91.0512 12.5477H87.7968V16.6909V20.834H86.949H86.1018V10.997ZM95.424 10.7129C96.2484 10.3933 97.209 9.33982 97.4466 8.52299C97.6722 7.71804 97.6836 6.03712 97.458 5.24401C97.2546 4.53376 96.5424 3.64595 95.8872 3.29082C94.938 2.78181 94.4634 2.72262 91.0512 2.72262H87.7968V6.87757V11.0207L91.3332 10.9852C94.4406 10.9378 94.9266 10.9142 95.424 10.7129Z" fill="black"/>
<path d="M102 20.7429C102.045 20.6245 103.943 16.0873 106.136 10.8077L110.1 1.25714L110.7 1.25719C111.4 1.25719 111.6 1.25722 111.6 1.25722C111.713 1.52948 118.192 17.0224 119.39 19.9226L119.7 20.7429H118.8H117.9L116.995 18.2298L115.943 15.6847L110.881 15.6492L105.82 15.6256L104.746 18.2298L103.8 20.7429H102.9C102.154 20.7429 102.3 20.7429 102 20.7429ZM115.232 13.9683C114.972 13.1515 110.881 3.3501 110.836 3.40928C110.791 3.45663 109.808 5.83597 108.644 8.70062C107.48 11.5653 106.497 13.9447 106.475 14.0038C106.452 14.0512 108.418 14.0867 110.848 14.0867C113.684 14.0867 115.255 14.0393 115.232 13.9683Z" fill="black"/>
<path d="M0.531055 21.3311C0.350263 21.1299 0.338964 20.2302 0.338964 10.8668C0.338964 -0.343335 0.305066 0.272215 0.983034 0.378752C1.33331 0.426103 16.7344 10.05 17.1751 10.488C17.774 11.0917 17.9096 10.9851 9.16381 16.4778C4.73444 19.2596 1.01693 21.5442 0.915234 21.5442C0.802242 21.5442 0.632748 21.4495 0.531055 21.3311ZM8.54233 15.2467C13.7401 11.9677 15.3333 10.926 15.2203 10.8194C15.1186 10.7247 2.24857 2.61604 1.6723 2.28459C1.6158 2.26092 1.5819 6.13178 1.5819 10.8786C1.5819 15.6373 1.6158 19.5318 1.6497 19.5318C1.68359 19.5318 4.77964 17.6023 8.54233 15.2467Z" fill="#4BC5DA"/>
<path d="M19.4351 21.3075C19.209 21.0708 19.209 20.9169 19.209 10.9142C19.209 1.21927 19.2204 0.733929 19.4124 0.55637C19.5254 0.437995 19.7402 0.355132 19.8983 0.366969C20.0452 0.366969 23.7627 2.62793 28.1921 5.42158C35.5254 10.0382 36.2147 10.4999 36.2486 10.8077C36.2712 10.997 36.226 11.2219 36.1469 11.3167C35.9435 11.5771 20.0452 21.5443 19.8419 21.5443C19.7402 21.5443 19.5593 21.4377 19.4351 21.3075ZM27.4916 15.2231L34.3503 10.926L27.4577 6.59352L20.565 2.26097V10.8905C20.565 15.6492 20.5876 19.5319 20.5989 19.5319C20.6215 19.5319 23.7288 17.5906 27.4916 15.2231Z" fill="#4BC5DA"/>
</svg>
